<?xml version="1.0"?><svg xmlns="http://www.w3.org/2000/svg" id="MASTER" viewBox="0 0 24 24"><path d="M24,9c0-1.46-.12-2.92-.36-4.32-.37-2.16-2.07-3.82-4.25-4.15-4.9-.7-9.85-.71-14.81,.0099C2.42,.85,.72,2.52,.35,4.7c-.23,1.45-.35,2.9-.35,4.3,0,1.46,.12,2.92,.36,4.32,.37,2.16,2.07,3.82,4.25,4.15,2.45,.35,4.94,.53,7.39,.53,0,3.31,2.69,6,6,6s6-2.69,6-6c0-1.15-.33-2.22-.89-3.13,.27-.5,.45-1.03,.54-1.57,.23-1.45,.35-2.9,.35-4.3Zm-4.293,8.707c-.1953,.1953-.4512,.293-.707,.293v2c0,.5522-.4473,1-1,1s-1-.4478-1-1v-2c-.2559,0-.5117-.0977-.707-.293-.3906-.3906-.3906-1.0234,0-1.4141l1-1c.3906-.3906,1.0234-.3906,1.4141,0l1,1c.3906,.3906,.3906,1.0234,0,1.4141Zm1.963-4.7271c-.01,.08-.05,.16-.07,.24-1-.76-2.25-1.22-3.6-1.22-2.61,0-4.82,1.67-5.65,4h-.35c-2.36,0-4.75-.17-7.1-.51-1.32-.2-2.35-1.2-2.57-2.51-.22-1.29-.33-2.63-.33-3.98,0-1.3,.11-2.64,.33-3.97,.05-.35,.17-.67,.33-.96l5.8,5.81c.98,.97,2.2599,1.46,3.54,1.46s2.56-.49,3.54-1.46l5.8-5.81c.16,.29,.27,.61,.33,.95,.22,1.29,.33,2.63,.33,3.98,0,1.3-.11,2.64-.33,3.98Z"/></svg>
