<?xml version="1.0"?><!DOCTYPE svg  PUBLIC '-//W3C//DTD SVG 1.1//EN'  'http://www.w3.org/Graphics/SVG/1.1/DTD/svg11.dtd'><svg xmlns="http://www.w3.org/2000/svg" xmlns:xlink="http://www.w3.org/1999/xlink" version="1.1" id="Layer_1" width="512px" height="512px" viewBox="0 0 512 512" enable-background="new 0 0 512 512" xml:space="preserve"><g><g><path fill-rule="evenodd" clip-rule="evenodd" fill="#4F4B6A" d="M168.803,302.197c1.182,2.248,0.768,5.008-1.031,6.804    l-8.162,8.157c-2.721,2.727-2.717,7.182,0,9.914l25.314,25.307c2.635,2.646,7.271,2.635,9.91,0l8.156-8.156    c1.801-1.805,4.555-2.221,6.801-1.025c5.586,2.943,11.369,5.336,17.189,7.098c2.439,0.738,4.113,2.994,4.113,5.545v11.553    c0,3.855,3.141,7.005,6.998,7.005h35.807c3.855,0,6.994-3.146,6.994-7.005l0.004-11.553c0-2.551,1.676-4.807,4.121-5.545    c5.91-1.785,11.682-4.166,17.154-7.086c0.865-0.459,1.797-0.68,2.729-0.68c1.494,0,2.982,0.58,4.098,1.693l8.158,8.156    c2.729,2.73,7.176,2.713,9.908,0.004l25.299-25.29c2.73-2.749,2.742-7.208,0.021-9.931l-8.162-8.156    c-1.809-1.805-2.225-4.582-1.018-6.832c2.916-5.459,5.297-11.23,7.082-17.145c0.732-2.449,2.99-4.127,5.551-4.127h11.551    c3.857,0,7.002-3.141,7.002-7.006V238.1c0-3.857-3.141-7.008-7.002-7.008h-11.551c-2.557,0-4.813-1.672-5.555-4.117    c-1.756-5.814-4.146-11.596-7.098-17.182c-1.178-2.25-0.768-5.008,1.033-6.807l8.162-8.15c2.729-2.732,2.729-7.191,0-9.918    l-25.303-25.297c-2.75-2.734-7.209-2.726-9.922-0.008l-8.158,8.156c-1.799,1.805-4.564,2.219-6.803,1.026    c-5.635-2.971-11.414-5.354-17.174-7.09c-2.449-0.744-4.125-2.998-4.125-5.551v-11.551c0-3.857-3.139-7.002-6.994-7.002h-35.807    c-3.861,0-6.994,3.141-6.994,7.002v11.551c0,2.545-1.656,4.792-4.09,5.54c-5.961,1.836-11.758,4.232-17.213,7.109    c-2.242,1.189-5,0.775-6.801-1.029l-8.156-8.157c-2.635-2.635-7.268-2.643-9.91,0l-25.311,25.301    c-2.729,2.734-2.729,7.189,0,9.918l8.158,8.155c1.803,1.794,2.215,4.556,1.035,6.806c-2.887,5.465-5.277,11.256-7.104,17.209    c-0.752,2.43-2.996,4.092-5.547,4.092h-11.551c-3.857,0-7.002,3.145-7.002,7.006v35.801c0,3.857,3.141,7.002,7.002,7.002h11.555    c2.547-0.004,4.799,1.674,5.539,4.123C163.498,290.963,165.912,296.719,168.803,302.197L168.803,302.197z M256.041,199.624    c31.074,0,56.355,25.287,56.359,56.365c0,31.082-25.277,56.363-56.359,56.363c-31.098,0-56.4-25.281-56.4-56.363    C199.641,224.91,224.943,199.624,256.041,199.624z"/></g><g><path fill-rule="evenodd" clip-rule="evenodd" fill="#D9B1EE" d="M284.373,46.18c0,15.671-12.703,28.375-28.377,28.375    c-15.668,0-28.371-12.703-28.371-28.375c0-15.67,12.703-28.373,28.371-28.373C271.67,17.807,284.373,30.51,284.373,46.18z"/></g><g><path fill-rule="evenodd" clip-rule="evenodd" fill="#D9B1EE" d="M284.373,465.816c0-15.67-12.703-28.377-28.377-28.377    c-15.668,0-28.371,12.707-28.371,28.377s12.703,28.377,28.371,28.377C271.67,494.193,284.373,481.486,284.373,465.816z"/></g><g><circle fill-rule="evenodd" clip-rule="evenodd" fill="#D9B1EE" cx="46.182" cy="255.999" r="28.375"/></g><g><path fill-rule="evenodd" clip-rule="evenodd" fill="#D9B1EE" d="M465.818,227.623c-15.67,0-28.379,12.707-28.379,28.377    s12.709,28.374,28.379,28.374c15.668,0,28.373-12.704,28.373-28.374S481.486,227.623,465.818,227.623z"/></g><g><path fill-rule="evenodd" clip-rule="evenodd" fill="#D9B1EE" d="M76.162,144.276c-10.246,0-18.553,8.306-18.553,18.553    c0,10.25,8.307,18.558,18.553,18.558c10.252,0,18.557-8.309,18.557-18.558C94.719,152.582,86.414,144.276,76.162,144.276z"/></g><g><path fill-rule="evenodd" clip-rule="evenodd" fill="#D9B1EE" d="M144.289,76.162c0-10.246,8.307-18.555,18.551-18.555    c10.248,0,18.555,8.309,18.555,18.555c0,10.245-8.307,18.557-18.555,18.557C152.596,94.719,144.289,86.407,144.289,76.162z"/></g><g><circle fill-rule="evenodd" clip-rule="evenodd" fill="#D9B1EE" cx="435.846" cy="162.831" r="18.555"/></g><g><path fill-rule="evenodd" clip-rule="evenodd" fill="#D9B1EE" d="M367.721,76.162c0-10.246-8.309-18.555-18.553-18.555    c-10.246,0-18.553,8.309-18.553,18.555c0,10.245,8.307,18.557,18.553,18.557C359.412,94.719,367.721,86.407,367.721,76.162z"/></g><g><path fill-rule="evenodd" clip-rule="evenodd" fill="#D9B1EE" d="M76.162,367.736c-10.246,0-18.553-8.309-18.553-18.559    c0-10.246,8.307-18.553,18.553-18.553c10.252,0,18.557,8.307,18.557,18.553C94.719,359.428,86.414,367.736,76.162,367.736z"/></g><g><path fill-rule="evenodd" clip-rule="evenodd" fill="#D9B1EE" d="M144.289,435.85c0,10.246,8.307,18.554,18.551,18.554    c10.248,0,18.555-8.308,18.555-18.554c0-10.251-8.307-18.557-18.555-18.557C152.596,417.293,144.289,425.599,144.289,435.85z"/></g><g><path fill-rule="evenodd" clip-rule="evenodd" fill="#D9B1EE" d="M435.846,367.736c10.252,0,18.559-8.309,18.559-18.559    c0-10.246-8.307-18.553-18.559-18.553c-10.248,0-18.557,8.307-18.557,18.553C417.289,359.428,425.598,367.736,435.846,367.736z"/></g><g><path fill-rule="evenodd" clip-rule="evenodd" fill="#D9B1EE" d="M367.721,435.85c0,10.246-8.309,18.554-18.553,18.554    c-10.246,0-18.553-8.308-18.553-18.554c0-10.251,8.307-18.557,18.553-18.557C359.412,417.293,367.721,425.599,367.721,435.85z"/></g></g><g><g><path d="M256.043,192.871c-34.834,0-63.174,28.319-63.174,63.132c0,34.812,28.34,63.132,63.174,63.132    c34.813,0,63.135-28.32,63.135-63.132C319.168,221.19,290.846,192.871,256.043,192.871z M256.043,305.534    c-27.334,0-49.568-22.22-49.568-49.531c0-27.313,22.234-49.531,49.568-49.531c27.305,0,49.523,22.219,49.529,49.531    C305.572,283.314,283.355,305.534,256.043,305.534z"/><path d="M465.697,220.748c-17.063,0-31.318,12.252-34.496,28.252H381v-10.876c0-7.61-6.066-14.124-13.678-14.124h-10.797    c-1.795-5-4.158-11.309-7.025-16.84l7.641-7.545c2.602-2.605,4.035-6.037,4.035-9.725c0-1.261-0.18-2.318-0.503-3.5l16.56-16.39    h34.102c2.98,10,12.793,18.396,24.41,18.396c13.975,0,25.346-11.446,25.346-25.422s-11.371-25.429-25.346-25.429    c-11.617,0-21.43,7.455-24.409,18.455h-36.919c-1.803,0-3.535,0.765-4.811,2.042l-17.272,17.297l-15.674-15.663l17.308-17.261    c1.275-1.272,2.033-2.999,2.033-4.802v-36.92c11-2.981,18.506-12.793,18.506-24.412c0-13.977-11.394-25.348-25.37-25.348    c-13.975,0-25.515,11.371-25.515,25.348c0,11.619,8.379,21.432,18.379,24.412v34.102l-16.481,16.641    c-4.647-1.182-9.8-0.045-13.286,3.439l-7.427,7.627c-5.553-2.883-11.806-5.242-16.806-7.025v-10.794    c0-7.61-6.502-13.684-14.105-13.684H263V80.81c16-3.178,28.259-17.432,28.259-34.492c0-19.385-15.821-35.156-35.206-35.156    c-19.391,0-35.291,15.771-35.291,35.156c0,17.061,12.238,31.315,28.238,34.493V131h-10.891c-7.605,0-14.109,6.073-14.109,13.684    v10.802c-6,1.846-11.402,4.203-16.84,7.021l-7.55-7.627c-3.348-3.354-8.438-4.465-13.087-3.368L170,134.796v-34.102    c10-2.981,18.397-12.793,18.397-24.412c0-13.977-11.448-25.348-25.425-25.348c-13.975,0-25.434,11.371-25.434,25.348    c0,11.619,7.461,21.432,18.461,24.412v36.92c0,1.803,0.766,3.535,2.041,4.809l17.287,17.263l-15.664,15.672l-17.26-17.315    c-1.275-1.277-3.002-2.042-4.805-2.042h-36.919c-2.979-11-12.792-18.494-24.409-18.494c-13.975,0-25.346,11.391-25.346,25.368    c0,13.976,11.371,25.511,25.346,25.511c11.617,0,21.43-8.385,24.41-18.385h34.102l16.554,16.404    c-1.273,4.637-0.103,9.734,3.534,13.371l7.635,7.422C159.699,212.605,157.34,218,155.49,224h-10.809    C137.07,224,131,230.518,131,238.128V249H80.801c-3.177-16-17.432-28.252-34.494-28.252c-19.389,0-35.162,15.825-35.162,35.213    s15.773,35.279,35.162,35.279c17.063,0,31.317-12.24,34.494-28.24H131v10.905c0,7.61,6.07,14.095,13.682,14.095h10.791    c1.777,5,4.139,11.301,7.023,16.848l-7.641,7.557c-3.628,3.635-4.795,8.604-3.516,13.246L134.783,342h-34.102    c-2.98-10-12.793-18.375-24.41-18.375c-13.975,0-25.346,11.457-25.346,25.432c0,13.977,11.371,25.414,25.346,25.414    c11.617,0,21.43-7.471,24.409-18.471H137.6c1.803,0,3.535-0.744,4.811-2.021l17.271-17.285l15.676,15.664l-17.316,17.266    c-1.275,1.271-2.041,3.001-2.041,4.804v36.921c-11,2.979-18.498,12.792-18.498,24.412c0,13.976,11.397,25.343,25.372,25.343    c13.977,0,25.511-11.367,25.511-25.343c0-11.62-8.385-21.432-18.385-24.412v-34.103l16.458-16.61    c1.166,0.309,2.3,0.483,3.526,0.483c3.68,0,7.201-1.446,9.734-3.973l7.454-7.627c5.551,2.878,11.827,5.238,16.827,7.025v10.798    c0,7.61,6.496,13.658,14.102,13.658H249v50.215c-16,3.178-28.263,17.432-28.263,34.493c0,19.39,15.825,35.16,35.216,35.16    c19.385,0,35.28-15.771,35.28-35.16c0-17.061-12.233-31.314-28.233-34.492V381h10.891c7.604,0,13.791-6.119,13.791-13.727    l0.002-10.766c5.855-1.814,11.57-4.157,17.008-7.003l7.623,7.632c3.48,3.48,8.542,4.633,13.19,3.45L342,377.245v34.103    c-10,2.979-18.39,12.792-18.39,24.412c0,13.976,11.452,25.343,25.427,25.343c13.977,0,25.43-11.367,25.43-25.343    c0-11.62-7.467-21.432-18.467-24.412v-36.921c0-1.803-0.758-3.535-2.033-4.808l-17.298-17.278l15.665-15.673l17.276,17.311    c1.275,1.277,3.003,2.021,4.806,2.021h36.919c2.979,11,12.792,18.514,24.409,18.514c13.975,0,25.346-11.381,25.346-25.357    c0-13.975-11.371-25.524-25.346-25.524c-11.617,0-21.43,8.368-24.41,18.368h-34.102l-16.576-16.406    c1.271-4.639,0.106-9.725-3.518-13.35l-7.633-7.43c2.836-5.414,5.195-10.814,7.021-16.814h10.795    c7.611,0,13.678-6.488,13.678-14.099V263h50.201c3.178,16,17.434,28.268,34.496,28.268c19.385,0,35.158-15.871,35.158-35.26    C500.855,236.619,485.082,220.748,465.697,220.748z M435.744,151.155c6.475,0,11.74,5.267,11.74,11.743    c0,6.476-5.266,11.746-11.74,11.746c-6.473,0-11.74-5.271-11.74-11.746C424.004,156.422,429.271,151.155,435.744,151.155z     M337.371,76.282c0-6.477,5.27-11.747,11.744-11.747c6.477,0,11.746,5.271,11.746,11.747c0,6.476-5.27,11.746-11.746,11.746    C342.641,88.028,337.371,82.758,337.371,76.282z M234.443,46.317c0-11.885,9.672-21.556,21.561-21.556    c11.885,0,21.553,9.671,21.553,21.556c0,11.889-9.668,21.559-21.553,21.559C244.115,67.876,234.443,58.206,234.443,46.317z     M151.154,76.282c0-6.477,5.27-11.747,11.744-11.747c6.477,0,11.744,5.271,11.744,11.747c0,6.476-5.268,11.746-11.744,11.746    C156.424,88.028,151.154,82.758,151.154,76.282z M76.271,174.645c-6.475,0-11.742-5.271-11.742-11.746    c0-6.477,5.268-11.743,11.742-11.743c6.473,0,11.74,5.267,11.74,11.743C88.012,169.374,82.744,174.645,76.271,174.645z     M46.307,277.574c-11.887,0-21.559-9.671-21.559-21.56s9.672-21.559,21.559-21.559s21.557,9.67,21.557,21.559    S58.193,277.574,46.307,277.574z M76.271,360.886c-6.475,0-11.742-5.267-11.742-11.743c0-6.476,5.268-11.746,11.742-11.746    c6.473,0,11.74,5.271,11.74,11.746C88.012,355.619,82.744,360.886,76.271,360.886z M174.643,435.76    c0,6.476-5.268,11.742-11.744,11.742c-6.475,0-11.744-5.267-11.744-11.742c0-6.477,5.27-11.746,11.744-11.746    C169.375,424.014,174.643,429.283,174.643,435.76z M277.557,465.708c0,11.889-9.668,21.56-21.553,21.56    c-11.889,0-21.561-9.671-21.561-21.56s9.672-21.559,21.561-21.559C267.889,444.149,277.557,453.819,277.557,465.708z     M360.861,435.76c0,6.476-5.27,11.742-11.746,11.742c-6.475,0-11.744-5.267-11.744-11.742c0-6.477,5.27-11.746,11.744-11.746    C355.592,424.014,360.861,429.283,360.861,435.76z M435.744,337.396c6.475,0,11.74,5.271,11.74,11.746    c0,6.477-5.266,11.743-11.74,11.743c-6.473,0-11.74-5.267-11.74-11.743C424.004,342.667,429.271,337.396,435.744,337.396z     M367.322,274h-11.545c-5.6,0-10.445,3.652-12.053,9.006c-1.666,5.516-3.875,10.891-6.566,15.924    c-2.631,4.932-1.748,10.905,2.205,14.859l8.135,8.458l-25.564,25.28l-8.172-8.171c-3.844-3.815-10.016-4.732-14.811-2.187    c-5.072,2.705-10.424,4.916-15.914,6.572c-5.355,1.617-8.955,6.464-8.955,12.051l-0.004,11.549c0,0.103-0.049,0.201-0.145,0.201    L238,367.342v-11.545c0-5.591-3.639-10.434-8.986-12.051c-5.381-1.629-10.777-3.851-15.986-6.599    c-1.809-0.957-3.856-1.467-5.899-1.467c-3.369,0-6.538,1.316-8.907,3.697l-8.444,8.148l-25.298-25.576l8.161-8.157    c3.918-3.918,4.819-9.853,2.231-14.786c-2.76-5.223-4.98-10.588-6.596-15.945c-1.619-5.357-6.455-8.955-12.047-8.955    l-11.748-0.165L144.682,238h11.543c5.568,0,10.406-3.607,12.045-8.928c1.709-5.563,3.932-10.97,6.611-16.043    c2.59-4.906,1.693-10.857-2.238-14.794l-8.158-8.443l25.586-25.293l8.146,8.147c3.826,3.831,10.051,4.756,14.783,2.241    c5.098-2.688,10.492-4.915,16.031-6.623c5.318-1.637,8.891-6.473,8.891-12.035l0.146-11.743L274,144.684v11.545    c0,5.595,3.643,10.438,9,12.055c5.367,1.621,10.757,3.839,15.948,6.579c4.789,2.55,11.003,1.613,14.823-2.219l8.456-8.145    l25.292,25.576l-8.165,8.152c-3.918,3.927-4.817,9.865-2.231,14.783c2.746,5.203,4.967,10.576,6.604,15.977    c1.627,5.346,6.471,8.936,12.051,8.936l11.744,0.151L367.322,274z M465.697,277.574c-11.887,0-21.557-9.671-21.557-21.56    s9.67-21.559,21.557-21.559c11.885,0,21.553,9.67,21.553,21.559S477.582,277.574,465.697,277.574z"/></g></g></svg>
